<mxfile host="app.diagrams.net" agent="Mozilla/5.0 (Windows NT 10.0; Win64; x64) AppleWebKit/537.36 (KHTML, like Gecko) Chrome/129.0.0.0 Safari/537.36 Edg/129.0.0.0" version="24.7.17">
  <diagram name="Page-1" id="1uZEyyDIQPDQiscJpvkE">
    <mxGraphModel dx="1188" dy="2969" grid="1" gridSize="10" guides="1" tooltips="1" connect="1" arrows="1" fold="1" page="1" pageScale="1" pageWidth="827" pageHeight="1169" math="0" shadow="0">
      <root>
        <mxCell id="0" />
        <mxCell id="1" parent="0" />
        <mxCell id="7FEDEtRAqXnlfVxVKvqJ-1" value="" style="whiteSpace=wrap;html=1;aspect=fixed;" vertex="1" parent="1">
          <mxGeometry x="320" y="-420" width="630" height="630" as="geometry" />
        </mxCell>
        <mxCell id="7FEDEtRAqXnlfVxVKvqJ-8" style="edgeStyle=orthogonalEdgeStyle;rounded=0;orthogonalLoop=1;jettySize=auto;html=1;exitX=0.5;exitY=0.5;exitDx=0;exitDy=0;exitPerimeter=0;entryX=0;entryY=0.5;entryDx=0;entryDy=0;" edge="1" parent="1" source="7FEDEtRAqXnlfVxVKvqJ-2" target="7FEDEtRAqXnlfVxVKvqJ-7">
          <mxGeometry relative="1" as="geometry" />
        </mxCell>
        <mxCell id="7FEDEtRAqXnlfVxVKvqJ-103" style="edgeStyle=orthogonalEdgeStyle;rounded=0;orthogonalLoop=1;jettySize=auto;html=1;exitX=0.5;exitY=0.5;exitDx=0;exitDy=0;exitPerimeter=0;entryX=0;entryY=0.5;entryDx=0;entryDy=0;" edge="1" parent="1" source="7FEDEtRAqXnlfVxVKvqJ-2" target="7FEDEtRAqXnlfVxVKvqJ-101">
          <mxGeometry relative="1" as="geometry">
            <mxPoint x="640" y="-110" as="targetPoint" />
            <Array as="points">
              <mxPoint x="340" y="-470" />
              <mxPoint x="340" y="-60" />
              <mxPoint x="520" y="-60" />
              <mxPoint x="520" y="-70" />
            </Array>
          </mxGeometry>
        </mxCell>
        <mxCell id="7FEDEtRAqXnlfVxVKvqJ-2" value="Customer" style="shape=umlActor;verticalLabelPosition=bottom;verticalAlign=top;html=1;outlineConnect=0;" vertex="1" parent="1">
          <mxGeometry x="320" y="-500" width="30" height="60" as="geometry" />
        </mxCell>
        <mxCell id="7FEDEtRAqXnlfVxVKvqJ-9" style="edgeStyle=orthogonalEdgeStyle;rounded=0;orthogonalLoop=1;jettySize=auto;html=1;exitX=0.5;exitY=0.5;exitDx=0;exitDy=0;exitPerimeter=0;" edge="1" parent="1" source="7FEDEtRAqXnlfVxVKvqJ-3" target="7FEDEtRAqXnlfVxVKvqJ-7">
          <mxGeometry relative="1" as="geometry" />
        </mxCell>
        <mxCell id="7FEDEtRAqXnlfVxVKvqJ-102" style="edgeStyle=orthogonalEdgeStyle;rounded=0;orthogonalLoop=1;jettySize=auto;html=1;exitX=0.5;exitY=0.5;exitDx=0;exitDy=0;exitPerimeter=0;entryX=1;entryY=0.5;entryDx=0;entryDy=0;" edge="1" parent="1" source="7FEDEtRAqXnlfVxVKvqJ-3" target="7FEDEtRAqXnlfVxVKvqJ-101">
          <mxGeometry relative="1" as="geometry">
            <Array as="points">
              <mxPoint x="935" y="-60" />
              <mxPoint x="760" y="-60" />
              <mxPoint x="760" y="-70" />
            </Array>
          </mxGeometry>
        </mxCell>
        <mxCell id="7FEDEtRAqXnlfVxVKvqJ-3" value="Driver" style="shape=umlActor;verticalLabelPosition=bottom;verticalAlign=top;html=1;outlineConnect=0;" vertex="1" parent="1">
          <mxGeometry x="920" y="-500" width="30" height="60" as="geometry" />
        </mxCell>
        <mxCell id="7FEDEtRAqXnlfVxVKvqJ-14" style="edgeStyle=orthogonalEdgeStyle;rounded=0;orthogonalLoop=1;jettySize=auto;html=1;exitX=0.5;exitY=1;exitDx=0;exitDy=0;entryX=0.5;entryY=0;entryDx=0;entryDy=0;" edge="1" parent="1" source="7FEDEtRAqXnlfVxVKvqJ-7" target="7FEDEtRAqXnlfVxVKvqJ-10">
          <mxGeometry relative="1" as="geometry" />
        </mxCell>
        <mxCell id="7FEDEtRAqXnlfVxVKvqJ-7" value="App" style="ellipse;whiteSpace=wrap;html=1;" vertex="1" parent="1">
          <mxGeometry x="580" y="-500" width="120" height="80" as="geometry" />
        </mxCell>
        <mxCell id="7FEDEtRAqXnlfVxVKvqJ-17" style="edgeStyle=orthogonalEdgeStyle;rounded=0;orthogonalLoop=1;jettySize=auto;html=1;exitX=0;exitY=0.5;exitDx=0;exitDy=0;entryX=1;entryY=0.5;entryDx=0;entryDy=0;" edge="1" parent="1" source="7FEDEtRAqXnlfVxVKvqJ-10" target="7FEDEtRAqXnlfVxVKvqJ-12">
          <mxGeometry relative="1" as="geometry" />
        </mxCell>
        <mxCell id="7FEDEtRAqXnlfVxVKvqJ-18" style="edgeStyle=orthogonalEdgeStyle;rounded=0;orthogonalLoop=1;jettySize=auto;html=1;exitX=1;exitY=0.5;exitDx=0;exitDy=0;entryX=0;entryY=0.5;entryDx=0;entryDy=0;" edge="1" parent="1" source="7FEDEtRAqXnlfVxVKvqJ-10" target="7FEDEtRAqXnlfVxVKvqJ-13">
          <mxGeometry relative="1" as="geometry" />
        </mxCell>
        <mxCell id="7FEDEtRAqXnlfVxVKvqJ-10" value="Sign Up" style="ellipse;whiteSpace=wrap;html=1;" vertex="1" parent="1">
          <mxGeometry x="580" y="-390" width="120" height="80" as="geometry" />
        </mxCell>
        <mxCell id="7FEDEtRAqXnlfVxVKvqJ-23" style="edgeStyle=orthogonalEdgeStyle;rounded=0;orthogonalLoop=1;jettySize=auto;html=1;exitX=0;exitY=0.5;exitDx=0;exitDy=0;entryX=0.5;entryY=0;entryDx=0;entryDy=0;" edge="1" parent="1" source="7FEDEtRAqXnlfVxVKvqJ-12" target="7FEDEtRAqXnlfVxVKvqJ-19">
          <mxGeometry relative="1" as="geometry" />
        </mxCell>
        <mxCell id="7FEDEtRAqXnlfVxVKvqJ-12" value="Customer GUI" style="ellipse;whiteSpace=wrap;html=1;" vertex="1" parent="1">
          <mxGeometry x="440" y="-390" width="120" height="80" as="geometry" />
        </mxCell>
        <mxCell id="7FEDEtRAqXnlfVxVKvqJ-24" style="edgeStyle=orthogonalEdgeStyle;rounded=0;orthogonalLoop=1;jettySize=auto;html=1;exitX=1;exitY=0.5;exitDx=0;exitDy=0;entryX=0.5;entryY=0;entryDx=0;entryDy=0;" edge="1" parent="1" source="7FEDEtRAqXnlfVxVKvqJ-13" target="7FEDEtRAqXnlfVxVKvqJ-20">
          <mxGeometry relative="1" as="geometry" />
        </mxCell>
        <mxCell id="7FEDEtRAqXnlfVxVKvqJ-13" value="Driver GUI" style="ellipse;whiteSpace=wrap;html=1;" vertex="1" parent="1">
          <mxGeometry x="720" y="-390" width="120" height="80" as="geometry" />
        </mxCell>
        <mxCell id="7FEDEtRAqXnlfVxVKvqJ-58" style="edgeStyle=orthogonalEdgeStyle;rounded=0;orthogonalLoop=1;jettySize=auto;html=1;exitX=0.5;exitY=1;exitDx=0;exitDy=0;entryX=0.5;entryY=0;entryDx=0;entryDy=0;" edge="1" parent="1" source="7FEDEtRAqXnlfVxVKvqJ-19" target="7FEDEtRAqXnlfVxVKvqJ-21">
          <mxGeometry relative="1" as="geometry" />
        </mxCell>
        <mxCell id="7FEDEtRAqXnlfVxVKvqJ-19" value="Enter Full Name" style="ellipse;whiteSpace=wrap;html=1;" vertex="1" parent="1">
          <mxGeometry x="370" y="-320" width="70" height="40" as="geometry" />
        </mxCell>
        <mxCell id="7FEDEtRAqXnlfVxVKvqJ-71" style="edgeStyle=orthogonalEdgeStyle;rounded=0;orthogonalLoop=1;jettySize=auto;html=1;exitX=0.5;exitY=1;exitDx=0;exitDy=0;entryX=0.5;entryY=0;entryDx=0;entryDy=0;" edge="1" parent="1" source="7FEDEtRAqXnlfVxVKvqJ-20" target="7FEDEtRAqXnlfVxVKvqJ-22">
          <mxGeometry relative="1" as="geometry" />
        </mxCell>
        <mxCell id="7FEDEtRAqXnlfVxVKvqJ-20" value="Enter Full Name" style="ellipse;whiteSpace=wrap;html=1;" vertex="1" parent="1">
          <mxGeometry x="840" y="-320" width="70" height="40" as="geometry" />
        </mxCell>
        <mxCell id="7FEDEtRAqXnlfVxVKvqJ-59" style="edgeStyle=orthogonalEdgeStyle;rounded=0;orthogonalLoop=1;jettySize=auto;html=1;exitX=0.5;exitY=1;exitDx=0;exitDy=0;entryX=0.5;entryY=0;entryDx=0;entryDy=0;" edge="1" parent="1" source="7FEDEtRAqXnlfVxVKvqJ-21" target="7FEDEtRAqXnlfVxVKvqJ-25">
          <mxGeometry relative="1" as="geometry" />
        </mxCell>
        <mxCell id="7FEDEtRAqXnlfVxVKvqJ-21" value="Mob Num" style="ellipse;whiteSpace=wrap;html=1;" vertex="1" parent="1">
          <mxGeometry x="367.5" y="-270" width="75" height="40" as="geometry" />
        </mxCell>
        <mxCell id="7FEDEtRAqXnlfVxVKvqJ-72" style="edgeStyle=orthogonalEdgeStyle;rounded=0;orthogonalLoop=1;jettySize=auto;html=1;exitX=0.5;exitY=1;exitDx=0;exitDy=0;entryX=0.5;entryY=0;entryDx=0;entryDy=0;" edge="1" parent="1" source="7FEDEtRAqXnlfVxVKvqJ-22" target="7FEDEtRAqXnlfVxVKvqJ-64">
          <mxGeometry relative="1" as="geometry" />
        </mxCell>
        <mxCell id="7FEDEtRAqXnlfVxVKvqJ-22" value="Mob Num" style="ellipse;whiteSpace=wrap;html=1;" vertex="1" parent="1">
          <mxGeometry x="837.5" y="-270" width="75" height="40" as="geometry" />
        </mxCell>
        <mxCell id="7FEDEtRAqXnlfVxVKvqJ-91" style="edgeStyle=orthogonalEdgeStyle;rounded=0;orthogonalLoop=1;jettySize=auto;html=1;exitX=0.5;exitY=1;exitDx=0;exitDy=0;entryX=0.5;entryY=0;entryDx=0;entryDy=0;" edge="1" parent="1" source="7FEDEtRAqXnlfVxVKvqJ-25" target="7FEDEtRAqXnlfVxVKvqJ-28">
          <mxGeometry relative="1" as="geometry" />
        </mxCell>
        <mxCell id="7FEDEtRAqXnlfVxVKvqJ-25" value="Card Details" style="ellipse;whiteSpace=wrap;html=1;" vertex="1" parent="1">
          <mxGeometry x="365.63" y="-220" width="78.75" height="40" as="geometry" />
        </mxCell>
        <mxCell id="7FEDEtRAqXnlfVxVKvqJ-26" value="" style="whiteSpace=wrap;html=1;aspect=fixed;" vertex="1" parent="1">
          <mxGeometry y="-1169" width="329" height="329" as="geometry" />
        </mxCell>
        <mxCell id="7FEDEtRAqXnlfVxVKvqJ-54" style="edgeStyle=orthogonalEdgeStyle;rounded=0;orthogonalLoop=1;jettySize=auto;html=1;exitX=1;exitY=1;exitDx=0;exitDy=0;entryX=1;entryY=0;entryDx=0;entryDy=0;" edge="1" parent="1" source="7FEDEtRAqXnlfVxVKvqJ-27" target="7FEDEtRAqXnlfVxVKvqJ-29">
          <mxGeometry relative="1" as="geometry">
            <Array as="points">
              <mxPoint x="225" y="-1100" />
              <mxPoint x="199" y="-1100" />
            </Array>
          </mxGeometry>
        </mxCell>
        <mxCell id="7FEDEtRAqXnlfVxVKvqJ-27" value="Bank" style="shape=process;whiteSpace=wrap;html=1;backgroundOutline=1;" vertex="1" parent="1">
          <mxGeometry x="105" y="-1169" width="120" height="60" as="geometry" />
        </mxCell>
        <mxCell id="7FEDEtRAqXnlfVxVKvqJ-57" style="edgeStyle=orthogonalEdgeStyle;rounded=0;orthogonalLoop=1;jettySize=auto;html=1;exitX=1;exitY=0.5;exitDx=0;exitDy=0;entryX=0;entryY=0;entryDx=0;entryDy=0;" edge="1" parent="1" source="7FEDEtRAqXnlfVxVKvqJ-28" target="7FEDEtRAqXnlfVxVKvqJ-39">
          <mxGeometry relative="1" as="geometry" />
        </mxCell>
        <mxCell id="7FEDEtRAqXnlfVxVKvqJ-79" style="edgeStyle=orthogonalEdgeStyle;rounded=0;orthogonalLoop=1;jettySize=auto;html=1;exitX=0.5;exitY=1;exitDx=0;exitDy=0;entryX=0.5;entryY=0;entryDx=0;entryDy=0;" edge="1" parent="1" source="7FEDEtRAqXnlfVxVKvqJ-28" target="7FEDEtRAqXnlfVxVKvqJ-78">
          <mxGeometry relative="1" as="geometry" />
        </mxCell>
        <mxCell id="7FEDEtRAqXnlfVxVKvqJ-85" style="edgeStyle=orthogonalEdgeStyle;rounded=0;orthogonalLoop=1;jettySize=auto;html=1;exitX=0.5;exitY=1;exitDx=0;exitDy=0;entryX=1;entryY=0.5;entryDx=0;entryDy=0;" edge="1" parent="1" source="7FEDEtRAqXnlfVxVKvqJ-28" target="7FEDEtRAqXnlfVxVKvqJ-27">
          <mxGeometry relative="1" as="geometry">
            <Array as="points">
              <mxPoint x="405" y="-110" />
              <mxPoint x="360" y="-110" />
              <mxPoint x="360" y="-1139" />
            </Array>
          </mxGeometry>
        </mxCell>
        <mxCell id="7FEDEtRAqXnlfVxVKvqJ-92" style="edgeStyle=orthogonalEdgeStyle;rounded=0;orthogonalLoop=1;jettySize=auto;html=1;exitX=0;exitY=1;exitDx=0;exitDy=0;entryX=0.5;entryY=1;entryDx=0;entryDy=0;" edge="1" parent="1" source="7FEDEtRAqXnlfVxVKvqJ-28" target="7FEDEtRAqXnlfVxVKvqJ-29">
          <mxGeometry relative="1" as="geometry" />
        </mxCell>
        <mxCell id="7FEDEtRAqXnlfVxVKvqJ-28" value="Verifying" style="ellipse;whiteSpace=wrap;html=1;" vertex="1" parent="1">
          <mxGeometry x="382.5" y="-170" width="45" height="40" as="geometry" />
        </mxCell>
        <mxCell id="7FEDEtRAqXnlfVxVKvqJ-33" style="edgeStyle=orthogonalEdgeStyle;rounded=0;orthogonalLoop=1;jettySize=auto;html=1;exitX=0;exitY=0.5;exitDx=0;exitDy=0;entryX=0.5;entryY=0;entryDx=0;entryDy=0;" edge="1" parent="1" source="7FEDEtRAqXnlfVxVKvqJ-29" target="7FEDEtRAqXnlfVxVKvqJ-30">
          <mxGeometry relative="1" as="geometry" />
        </mxCell>
        <mxCell id="7FEDEtRAqXnlfVxVKvqJ-51" style="edgeStyle=orthogonalEdgeStyle;rounded=0;orthogonalLoop=1;jettySize=auto;html=1;exitX=0;exitY=0;exitDx=0;exitDy=0;entryX=0;entryY=1;entryDx=0;entryDy=0;" edge="1" parent="1" source="7FEDEtRAqXnlfVxVKvqJ-29" target="7FEDEtRAqXnlfVxVKvqJ-27">
          <mxGeometry relative="1" as="geometry" />
        </mxCell>
        <mxCell id="7FEDEtRAqXnlfVxVKvqJ-29" value="Receives Details" style="ellipse;whiteSpace=wrap;html=1;" vertex="1" parent="1">
          <mxGeometry x="117.5" y="-1100" width="95" height="50" as="geometry" />
        </mxCell>
        <mxCell id="7FEDEtRAqXnlfVxVKvqJ-38" style="edgeStyle=orthogonalEdgeStyle;rounded=0;orthogonalLoop=1;jettySize=auto;html=1;exitX=0.5;exitY=1;exitDx=0;exitDy=0;entryX=0.5;entryY=0;entryDx=0;entryDy=0;" edge="1" parent="1" source="7FEDEtRAqXnlfVxVKvqJ-30" target="7FEDEtRAqXnlfVxVKvqJ-36">
          <mxGeometry relative="1" as="geometry" />
        </mxCell>
        <mxCell id="7FEDEtRAqXnlfVxVKvqJ-30" value="Correct Details" style="ellipse;whiteSpace=wrap;html=1;" vertex="1" parent="1">
          <mxGeometry y="-1050" width="95" height="44.5" as="geometry" />
        </mxCell>
        <mxCell id="7FEDEtRAqXnlfVxVKvqJ-37" style="edgeStyle=orthogonalEdgeStyle;rounded=0;orthogonalLoop=1;jettySize=auto;html=1;exitX=0.5;exitY=1;exitDx=0;exitDy=0;entryX=0.5;entryY=0;entryDx=0;entryDy=0;" edge="1" parent="1" source="7FEDEtRAqXnlfVxVKvqJ-32" target="7FEDEtRAqXnlfVxVKvqJ-35">
          <mxGeometry relative="1" as="geometry" />
        </mxCell>
        <mxCell id="7FEDEtRAqXnlfVxVKvqJ-32" value="Incorrect Details" style="ellipse;whiteSpace=wrap;html=1;" vertex="1" parent="1">
          <mxGeometry x="234" y="-1050" width="95" height="44.5" as="geometry" />
        </mxCell>
        <mxCell id="7FEDEtRAqXnlfVxVKvqJ-34" style="edgeStyle=orthogonalEdgeStyle;rounded=0;orthogonalLoop=1;jettySize=auto;html=1;exitX=1;exitY=0.5;exitDx=0;exitDy=0;entryX=0.56;entryY=0.007;entryDx=0;entryDy=0;entryPerimeter=0;" edge="1" parent="1" source="7FEDEtRAqXnlfVxVKvqJ-29" target="7FEDEtRAqXnlfVxVKvqJ-32">
          <mxGeometry relative="1" as="geometry" />
        </mxCell>
        <mxCell id="7FEDEtRAqXnlfVxVKvqJ-93" style="edgeStyle=orthogonalEdgeStyle;rounded=0;orthogonalLoop=1;jettySize=auto;html=1;exitX=0.5;exitY=1;exitDx=0;exitDy=0;entryX=0;entryY=0.5;entryDx=0;entryDy=0;" edge="1" parent="1" source="7FEDEtRAqXnlfVxVKvqJ-35" target="7FEDEtRAqXnlfVxVKvqJ-28">
          <mxGeometry relative="1" as="geometry">
            <mxPoint x="380" y="-150" as="targetPoint" />
            <Array as="points">
              <mxPoint x="282" y="-150" />
            </Array>
          </mxGeometry>
        </mxCell>
        <mxCell id="7FEDEtRAqXnlfVxVKvqJ-96" style="edgeStyle=orthogonalEdgeStyle;rounded=0;orthogonalLoop=1;jettySize=auto;html=1;exitX=0.5;exitY=1;exitDx=0;exitDy=0;entryX=1;entryY=0.5;entryDx=0;entryDy=0;" edge="1" parent="1" source="7FEDEtRAqXnlfVxVKvqJ-35" target="7FEDEtRAqXnlfVxVKvqJ-65">
          <mxGeometry relative="1" as="geometry" />
        </mxCell>
        <mxCell id="7FEDEtRAqXnlfVxVKvqJ-35" value="Relays Info back&lt;span style=&quot;color: rgba(0, 0, 0, 0); font-family: monospace; font-size: 0px; text-align: start; text-wrap: nowrap;&quot;&gt;%3CmxGraphModel%3E%3Croot%3E%3CmxCell%20id%3D%220%22%2F%3E%3CmxCell%20id%3D%221%22%20parent%3D%220%22%2F%3E%3CmxCell%20id%3D%222%22%20value%3D%22%22%20style%3D%22ellipse%3BwhiteSpace%3Dwrap%3Bhtml%3D1%3B%22%20vertex%3D%221%22%20parent%3D%221%22%3E%3CmxGeometry%20y%3D%22-1050%22%20width%3D%2295%22%20height%3D%2244.5%22%20as%3D%22geometry%22%2F%3E%3C%2FmxCell%3E%3C%2Froot%3E%3C%2FmxGraphModel%3E&lt;/span&gt;" style="ellipse;whiteSpace=wrap;html=1;" vertex="1" parent="1">
          <mxGeometry x="237.75" y="-1000" width="87.5" height="40" as="geometry" />
        </mxCell>
        <mxCell id="7FEDEtRAqXnlfVxVKvqJ-83" style="edgeStyle=orthogonalEdgeStyle;rounded=0;orthogonalLoop=1;jettySize=auto;html=1;exitX=0.5;exitY=1;exitDx=0;exitDy=0;" edge="1" parent="1" source="7FEDEtRAqXnlfVxVKvqJ-36">
          <mxGeometry relative="1" as="geometry">
            <mxPoint x="383" y="-150" as="targetPoint" />
            <Array as="points">
              <mxPoint x="48" y="-555" />
              <mxPoint x="250" y="-555" />
              <mxPoint x="250" y="-150" />
            </Array>
          </mxGeometry>
        </mxCell>
        <mxCell id="7FEDEtRAqXnlfVxVKvqJ-94" style="edgeStyle=orthogonalEdgeStyle;rounded=0;orthogonalLoop=1;jettySize=auto;html=1;exitX=0.5;exitY=1;exitDx=0;exitDy=0;entryX=1;entryY=0.5;entryDx=0;entryDy=0;" edge="1" parent="1" source="7FEDEtRAqXnlfVxVKvqJ-36" target="7FEDEtRAqXnlfVxVKvqJ-65">
          <mxGeometry relative="1" as="geometry">
            <Array as="points">
              <mxPoint x="47" y="-650" />
              <mxPoint x="917" y="-650" />
              <mxPoint x="917" y="-150" />
            </Array>
          </mxGeometry>
        </mxCell>
        <mxCell id="7FEDEtRAqXnlfVxVKvqJ-36" value="Relays Info back&lt;span style=&quot;color: rgba(0, 0, 0, 0); font-family: monospace; font-size: 0px; text-align: start; text-wrap: nowrap;&quot;&gt;%3CmxGraphModel%3E%3Croot%3E%3CmxCell%20id%3D%220%22%2F%3E%3CmxCell%20id%3D%221%22%20parent%3D%220%22%2F%3E%3CmxCell%20id%3D%222%22%20value%3D%22%22%20style%3D%22ellipse%3BwhiteSpace%3Dwrap%3Bhtml%3D1%3B%22%20vertex%3D%221%22%20parent%3D%221%22%3E%3CmxGeometry%20y%3D%22-1050%22%20width%3D%2295%22%20height%3D%2244.5%22%20as%3D%22geometry%22%2F%3E%3C%2FmxCell%3E%3C%2Froot%3E%3C%2FmxGraphModel%3E&lt;/span&gt;" style="ellipse;whiteSpace=wrap;html=1;" vertex="1" parent="1">
          <mxGeometry x="3.75" y="-1000" width="87.5" height="40" as="geometry" />
        </mxCell>
        <mxCell id="7FEDEtRAqXnlfVxVKvqJ-42" style="edgeStyle=orthogonalEdgeStyle;rounded=0;orthogonalLoop=1;jettySize=auto;html=1;exitX=0.5;exitY=0;exitDx=0;exitDy=0;entryX=0.5;entryY=1;entryDx=0;entryDy=0;" edge="1" parent="1" source="7FEDEtRAqXnlfVxVKvqJ-39" target="7FEDEtRAqXnlfVxVKvqJ-41">
          <mxGeometry relative="1" as="geometry" />
        </mxCell>
        <mxCell id="7FEDEtRAqXnlfVxVKvqJ-39" value="Incorrect Details" style="ellipse;whiteSpace=wrap;html=1;" vertex="1" parent="1">
          <mxGeometry x="444.38" y="-130" width="70" height="40" as="geometry" />
        </mxCell>
        <mxCell id="7FEDEtRAqXnlfVxVKvqJ-43" style="edgeStyle=orthogonalEdgeStyle;rounded=0;orthogonalLoop=1;jettySize=auto;html=1;exitX=0.5;exitY=0;exitDx=0;exitDy=0;entryX=1;entryY=0.5;entryDx=0;entryDy=0;" edge="1" parent="1" source="7FEDEtRAqXnlfVxVKvqJ-41" target="7FEDEtRAqXnlfVxVKvqJ-19">
          <mxGeometry relative="1" as="geometry" />
        </mxCell>
        <mxCell id="7FEDEtRAqXnlfVxVKvqJ-48" style="edgeStyle=orthogonalEdgeStyle;rounded=0;orthogonalLoop=1;jettySize=auto;html=1;exitX=1;exitY=0.5;exitDx=0;exitDy=0;entryX=0;entryY=0.5;entryDx=0;entryDy=0;" edge="1" parent="1" source="7FEDEtRAqXnlfVxVKvqJ-41" target="7FEDEtRAqXnlfVxVKvqJ-47">
          <mxGeometry relative="1" as="geometry" />
        </mxCell>
        <mxCell id="7FEDEtRAqXnlfVxVKvqJ-41" value="Gives User 3 Attemps" style="ellipse;whiteSpace=wrap;html=1;" vertex="1" parent="1">
          <mxGeometry x="460" y="-240" width="65.62" height="50" as="geometry" />
        </mxCell>
        <mxCell id="7FEDEtRAqXnlfVxVKvqJ-46" style="edgeStyle=orthogonalEdgeStyle;rounded=0;orthogonalLoop=1;jettySize=auto;html=1;exitX=0.5;exitY=0;exitDx=0;exitDy=0;entryX=0.5;entryY=1;entryDx=0;entryDy=0;" edge="1" parent="1" source="7FEDEtRAqXnlfVxVKvqJ-44" target="7FEDEtRAqXnlfVxVKvqJ-10">
          <mxGeometry relative="1" as="geometry" />
        </mxCell>
        <mxCell id="7FEDEtRAqXnlfVxVKvqJ-50" style="edgeStyle=orthogonalEdgeStyle;rounded=0;orthogonalLoop=1;jettySize=auto;html=1;exitX=1;exitY=0.5;exitDx=0;exitDy=0;entryX=0.5;entryY=1;entryDx=0;entryDy=0;" edge="1" parent="1" source="7FEDEtRAqXnlfVxVKvqJ-44" target="7FEDEtRAqXnlfVxVKvqJ-29">
          <mxGeometry relative="1" as="geometry">
            <Array as="points">
              <mxPoint x="710" y="-270" />
              <mxPoint x="710" y="-675" />
              <mxPoint x="165" y="-675" />
            </Array>
          </mxGeometry>
        </mxCell>
        <mxCell id="7FEDEtRAqXnlfVxVKvqJ-44" value="Records the device&amp;nbsp;" style="ellipse;whiteSpace=wrap;html=1;" vertex="1" parent="1">
          <mxGeometry x="605" y="-300" width="70" height="60" as="geometry" />
        </mxCell>
        <mxCell id="7FEDEtRAqXnlfVxVKvqJ-49" style="edgeStyle=orthogonalEdgeStyle;rounded=0;orthogonalLoop=1;jettySize=auto;html=1;exitX=1;exitY=0.5;exitDx=0;exitDy=0;entryX=0.5;entryY=1;entryDx=0;entryDy=0;" edge="1" parent="1" source="7FEDEtRAqXnlfVxVKvqJ-47" target="7FEDEtRAqXnlfVxVKvqJ-44">
          <mxGeometry relative="1" as="geometry" />
        </mxCell>
        <mxCell id="7FEDEtRAqXnlfVxVKvqJ-47" value="If 3 attempts and still incorrect&amp;nbsp;" style="ellipse;whiteSpace=wrap;html=1;" vertex="1" parent="1">
          <mxGeometry x="536" y="-248.75" width="84" height="67.5" as="geometry" />
        </mxCell>
        <mxCell id="7FEDEtRAqXnlfVxVKvqJ-73" style="edgeStyle=orthogonalEdgeStyle;rounded=0;orthogonalLoop=1;jettySize=auto;html=1;exitX=0.5;exitY=1;exitDx=0;exitDy=0;entryX=0.5;entryY=0;entryDx=0;entryDy=0;" edge="1" parent="1" source="7FEDEtRAqXnlfVxVKvqJ-64" target="7FEDEtRAqXnlfVxVKvqJ-65">
          <mxGeometry relative="1" as="geometry" />
        </mxCell>
        <mxCell id="7FEDEtRAqXnlfVxVKvqJ-64" value="Card Details" style="ellipse;whiteSpace=wrap;html=1;direction=east;flipH=0;flipV=1;" vertex="1" parent="1">
          <mxGeometry x="835.63" y="-220" width="78.75" height="40" as="geometry" />
        </mxCell>
        <mxCell id="7FEDEtRAqXnlfVxVKvqJ-74" style="edgeStyle=orthogonalEdgeStyle;rounded=0;orthogonalLoop=1;jettySize=auto;html=1;exitX=0;exitY=0.5;exitDx=0;exitDy=0;entryX=1;entryY=0;entryDx=0;entryDy=0;" edge="1" parent="1" source="7FEDEtRAqXnlfVxVKvqJ-65" target="7FEDEtRAqXnlfVxVKvqJ-66">
          <mxGeometry relative="1" as="geometry" />
        </mxCell>
        <mxCell id="7FEDEtRAqXnlfVxVKvqJ-82" style="edgeStyle=orthogonalEdgeStyle;rounded=0;orthogonalLoop=1;jettySize=auto;html=1;exitX=0.5;exitY=1;exitDx=0;exitDy=0;entryX=0.5;entryY=0;entryDx=0;entryDy=0;" edge="1" parent="1" source="7FEDEtRAqXnlfVxVKvqJ-65" target="7FEDEtRAqXnlfVxVKvqJ-80">
          <mxGeometry relative="1" as="geometry" />
        </mxCell>
        <mxCell id="7FEDEtRAqXnlfVxVKvqJ-90" style="edgeStyle=orthogonalEdgeStyle;rounded=0;orthogonalLoop=1;jettySize=auto;html=1;exitX=0.5;exitY=1;exitDx=0;exitDy=0;entryX=0.5;entryY=0;entryDx=0;entryDy=0;" edge="1" parent="1" source="7FEDEtRAqXnlfVxVKvqJ-65" target="7FEDEtRAqXnlfVxVKvqJ-26">
          <mxGeometry relative="1" as="geometry">
            <Array as="points">
              <mxPoint x="875" y="-110" />
              <mxPoint x="990" y="-110" />
              <mxPoint x="990" y="-1180" />
              <mxPoint x="165" y="-1180" />
            </Array>
          </mxGeometry>
        </mxCell>
        <mxCell id="7FEDEtRAqXnlfVxVKvqJ-65" value="Verifying" style="ellipse;whiteSpace=wrap;html=1;direction=east;flipH=0;flipV=1;" vertex="1" parent="1">
          <mxGeometry x="852.51" y="-170" width="45" height="40" as="geometry" />
        </mxCell>
        <mxCell id="7FEDEtRAqXnlfVxVKvqJ-75" style="edgeStyle=orthogonalEdgeStyle;rounded=0;orthogonalLoop=1;jettySize=auto;html=1;exitX=0.5;exitY=0;exitDx=0;exitDy=0;entryX=0.5;entryY=1;entryDx=0;entryDy=0;" edge="1" parent="1" source="7FEDEtRAqXnlfVxVKvqJ-66" target="7FEDEtRAqXnlfVxVKvqJ-67">
          <mxGeometry relative="1" as="geometry" />
        </mxCell>
        <mxCell id="7FEDEtRAqXnlfVxVKvqJ-66" value="Incorrect Details" style="ellipse;whiteSpace=wrap;html=1;direction=east;flipH=0;flipV=1;" vertex="1" parent="1">
          <mxGeometry x="765.63" y="-130" width="70" height="40" as="geometry" />
        </mxCell>
        <mxCell id="7FEDEtRAqXnlfVxVKvqJ-76" style="edgeStyle=orthogonalEdgeStyle;rounded=0;orthogonalLoop=1;jettySize=auto;html=1;exitX=0;exitY=0.5;exitDx=0;exitDy=0;entryX=1;entryY=0.5;entryDx=0;entryDy=0;" edge="1" parent="1" source="7FEDEtRAqXnlfVxVKvqJ-67" target="7FEDEtRAqXnlfVxVKvqJ-68">
          <mxGeometry relative="1" as="geometry" />
        </mxCell>
        <mxCell id="7FEDEtRAqXnlfVxVKvqJ-67" value="Gives User 3 Attemps" style="ellipse;whiteSpace=wrap;html=1;direction=east;flipH=0;flipV=1;" vertex="1" parent="1">
          <mxGeometry x="754" y="-240" width="66" height="50" as="geometry" />
        </mxCell>
        <mxCell id="7FEDEtRAqXnlfVxVKvqJ-77" style="edgeStyle=orthogonalEdgeStyle;rounded=0;orthogonalLoop=1;jettySize=auto;html=1;exitX=0;exitY=0.5;exitDx=0;exitDy=0;entryX=0.5;entryY=1;entryDx=0;entryDy=0;" edge="1" parent="1" source="7FEDEtRAqXnlfVxVKvqJ-68" target="7FEDEtRAqXnlfVxVKvqJ-44">
          <mxGeometry relative="1" as="geometry" />
        </mxCell>
        <mxCell id="7FEDEtRAqXnlfVxVKvqJ-68" value="If 3 attempts and still incorrect&amp;nbsp;" style="ellipse;whiteSpace=wrap;html=1;direction=east;flipH=0;flipV=1;" vertex="1" parent="1">
          <mxGeometry x="660" y="-248.75" width="84" height="67.5" as="geometry" />
        </mxCell>
        <mxCell id="7FEDEtRAqXnlfVxVKvqJ-99" style="edgeStyle=orthogonalEdgeStyle;rounded=0;orthogonalLoop=1;jettySize=auto;html=1;exitX=1;exitY=0.5;exitDx=0;exitDy=0;entryX=0;entryY=0.5;entryDx=0;entryDy=0;" edge="1" parent="1" source="7FEDEtRAqXnlfVxVKvqJ-78" target="7FEDEtRAqXnlfVxVKvqJ-97">
          <mxGeometry relative="1" as="geometry" />
        </mxCell>
        <mxCell id="7FEDEtRAqXnlfVxVKvqJ-78" value="Verified" style="ellipse;whiteSpace=wrap;html=1;" vertex="1" parent="1">
          <mxGeometry x="382.5" y="-100" width="45" height="40" as="geometry" />
        </mxCell>
        <mxCell id="7FEDEtRAqXnlfVxVKvqJ-100" style="edgeStyle=orthogonalEdgeStyle;rounded=0;orthogonalLoop=1;jettySize=auto;html=1;exitX=0;exitY=0.5;exitDx=0;exitDy=0;entryX=1;entryY=0.5;entryDx=0;entryDy=0;" edge="1" parent="1" source="7FEDEtRAqXnlfVxVKvqJ-80" target="7FEDEtRAqXnlfVxVKvqJ-97">
          <mxGeometry relative="1" as="geometry" />
        </mxCell>
        <mxCell id="7FEDEtRAqXnlfVxVKvqJ-80" value="Verified" style="ellipse;whiteSpace=wrap;html=1;" vertex="1" parent="1">
          <mxGeometry x="852.51" y="-100" width="45" height="40" as="geometry" />
        </mxCell>
        <mxCell id="7FEDEtRAqXnlfVxVKvqJ-118" style="edgeStyle=orthogonalEdgeStyle;rounded=0;orthogonalLoop=1;jettySize=auto;html=1;exitX=0;exitY=1;exitDx=0;exitDy=0;entryX=0.5;entryY=0;entryDx=0;entryDy=0;fontFamily=Helvetica;fontSize=12;fontColor=default;" edge="1" parent="1" source="7FEDEtRAqXnlfVxVKvqJ-97" target="7FEDEtRAqXnlfVxVKvqJ-116">
          <mxGeometry relative="1" as="geometry">
            <Array as="points">
              <mxPoint x="598" y="40" />
              <mxPoint x="372" y="40" />
            </Array>
          </mxGeometry>
        </mxCell>
        <mxCell id="7FEDEtRAqXnlfVxVKvqJ-129" style="edgeStyle=orthogonalEdgeStyle;rounded=0;orthogonalLoop=1;jettySize=auto;html=1;exitX=1;exitY=1;exitDx=0;exitDy=0;entryX=0.5;entryY=0;entryDx=0;entryDy=0;fontFamily=Helvetica;fontSize=12;fontColor=default;" edge="1" parent="1" source="7FEDEtRAqXnlfVxVKvqJ-97" target="7FEDEtRAqXnlfVxVKvqJ-121">
          <mxGeometry relative="1" as="geometry">
            <Array as="points">
              <mxPoint x="682" y="40" />
              <mxPoint x="895" y="40" />
            </Array>
          </mxGeometry>
        </mxCell>
        <mxCell id="7FEDEtRAqXnlfVxVKvqJ-97" value="Sign In" style="ellipse;whiteSpace=wrap;html=1;" vertex="1" parent="1">
          <mxGeometry x="580" y="-20" width="120" height="80" as="geometry" />
        </mxCell>
        <mxCell id="7FEDEtRAqXnlfVxVKvqJ-104" style="edgeStyle=orthogonalEdgeStyle;rounded=0;orthogonalLoop=1;jettySize=auto;html=1;exitX=0.5;exitY=1;exitDx=0;exitDy=0;entryX=0.5;entryY=0;entryDx=0;entryDy=0;" edge="1" parent="1" source="7FEDEtRAqXnlfVxVKvqJ-101" target="7FEDEtRAqXnlfVxVKvqJ-97">
          <mxGeometry relative="1" as="geometry" />
        </mxCell>
        <mxCell id="7FEDEtRAqXnlfVxVKvqJ-101" value="Steps Already Done" style="ellipse;whiteSpace=wrap;html=1;" vertex="1" parent="1">
          <mxGeometry x="580" y="-110" width="120" height="80" as="geometry" />
        </mxCell>
        <mxCell id="7FEDEtRAqXnlfVxVKvqJ-105" value="" style="whiteSpace=wrap;html=1;strokeColor=default;align=center;verticalAlign=middle;fontFamily=Helvetica;fontSize=12;fontColor=default;fillColor=default;" vertex="1" parent="1">
          <mxGeometry x="1780" y="-1100" width="1920" height="1080" as="geometry" />
        </mxCell>
        <mxCell id="7FEDEtRAqXnlfVxVKvqJ-113" value="User&#39;s" style="swimlane;whiteSpace=wrap;html=1;startSize=23;" vertex="1" parent="1">
          <mxGeometry x="2640" y="-660" width="200" height="200" as="geometry" />
        </mxCell>
        <mxCell id="7FEDEtRAqXnlfVxVKvqJ-119" style="edgeStyle=orthogonalEdgeStyle;rounded=0;orthogonalLoop=1;jettySize=auto;html=1;exitX=0.5;exitY=1;exitDx=0;exitDy=0;entryX=0.5;entryY=0;entryDx=0;entryDy=0;fontFamily=Helvetica;fontSize=12;fontColor=default;" edge="1" parent="1" source="7FEDEtRAqXnlfVxVKvqJ-116" target="7FEDEtRAqXnlfVxVKvqJ-117">
          <mxGeometry relative="1" as="geometry" />
        </mxCell>
        <mxCell id="7FEDEtRAqXnlfVxVKvqJ-116" value="Enter Pickup Location" style="ellipse;whiteSpace=wrap;html=1;strokeColor=default;align=center;verticalAlign=middle;fontFamily=Helvetica;fontSize=12;fontColor=default;fillColor=default;" vertex="1" parent="1">
          <mxGeometry x="329" y="60" width="86" height="50" as="geometry" />
        </mxCell>
        <mxCell id="7FEDEtRAqXnlfVxVKvqJ-130" style="edgeStyle=orthogonalEdgeStyle;rounded=0;orthogonalLoop=1;jettySize=auto;html=1;exitX=1;exitY=0.5;exitDx=0;exitDy=0;entryX=0;entryY=0.5;entryDx=0;entryDy=0;fontFamily=Helvetica;fontSize=12;fontColor=default;" edge="1" parent="1" source="7FEDEtRAqXnlfVxVKvqJ-117" target="7FEDEtRAqXnlfVxVKvqJ-121">
          <mxGeometry relative="1" as="geometry">
            <Array as="points">
              <mxPoint x="450" y="145" />
              <mxPoint x="450" y="85" />
            </Array>
          </mxGeometry>
        </mxCell>
        <mxCell id="7FEDEtRAqXnlfVxVKvqJ-133" style="edgeStyle=orthogonalEdgeStyle;rounded=0;orthogonalLoop=1;jettySize=auto;html=1;exitX=1;exitY=0;exitDx=0;exitDy=0;entryX=0;entryY=0.5;entryDx=0;entryDy=0;fontFamily=Helvetica;fontSize=12;fontColor=default;" edge="1" parent="1" source="7FEDEtRAqXnlfVxVKvqJ-117" target="7FEDEtRAqXnlfVxVKvqJ-132">
          <mxGeometry relative="1" as="geometry" />
        </mxCell>
        <mxCell id="7FEDEtRAqXnlfVxVKvqJ-135" value="&lt;font style=&quot;font-size: 9px;&quot;&gt;Optional&lt;/font&gt;" style="edgeLabel;html=1;align=center;verticalAlign=middle;resizable=0;points=[];strokeColor=default;fontFamily=Helvetica;fontSize=12;fontColor=default;fillColor=default;" vertex="1" connectable="0" parent="7FEDEtRAqXnlfVxVKvqJ-133">
          <mxGeometry x="-0.1983" y="1" relative="1" as="geometry">
            <mxPoint x="-13" y="-8" as="offset" />
          </mxGeometry>
        </mxCell>
        <mxCell id="7FEDEtRAqXnlfVxVKvqJ-117" value="Waiting For Available Driver" style="ellipse;whiteSpace=wrap;html=1;strokeColor=default;align=center;verticalAlign=middle;fontFamily=Helvetica;fontSize=12;fontColor=default;fillColor=default;" vertex="1" parent="1">
          <mxGeometry x="329" y="120" width="86" height="50" as="geometry" />
        </mxCell>
        <mxCell id="7FEDEtRAqXnlfVxVKvqJ-136" style="edgeStyle=orthogonalEdgeStyle;rounded=0;orthogonalLoop=1;jettySize=auto;html=1;exitX=0.5;exitY=1;exitDx=0;exitDy=0;entryX=0.5;entryY=0;entryDx=0;entryDy=0;fontFamily=Helvetica;fontSize=12;fontColor=default;" edge="1" parent="1" source="7FEDEtRAqXnlfVxVKvqJ-121" target="7FEDEtRAqXnlfVxVKvqJ-131">
          <mxGeometry relative="1" as="geometry" />
        </mxCell>
        <mxCell id="7FEDEtRAqXnlfVxVKvqJ-121" value="Finding Customers Near you" style="ellipse;whiteSpace=wrap;html=1;strokeColor=default;align=center;verticalAlign=middle;fontFamily=Helvetica;fontSize=12;fontColor=default;fillColor=default;" vertex="1" parent="1">
          <mxGeometry x="852.51" y="60" width="86" height="50" as="geometry" />
        </mxCell>
        <mxCell id="7FEDEtRAqXnlfVxVKvqJ-124" value="GPS&lt;div&gt;Tracking&lt;span style=&quot;color: rgba(0, 0, 0, 0); font-family: monospace; font-size: 0px; text-align: start; text-wrap: nowrap; background-color: initial;&quot;&gt;%3CmxGraphModel%3E%3Croot%3E%3CmxCell%20id%3D%220%22%2F%3E%3CmxCell%20id%3D%221%22%20parent%3D%220%22%2F%3E%3CmxCell%20id%3D%222%22%20value%3D%22Enter%20Location%22%20style%3D%22ellipse%3BwhiteSpace%3Dwrap%3Bhtml%3D1%3BstrokeColor%3Ddefault%3Balign%3Dcenter%3BverticalAlign%3Dmiddle%3BfontFamily%3DHelvetica%3BfontSize%3D12%3BfontColor%3Ddefault%3BfillColor%3Ddefault%3B%22%20vertex%3D%221%22%20parent%3D%221%22%3E%3CmxGeometry%20x%3D%22329%22%20y%3D%2260%22%20width%3D%2286%22%20height%3D%2250%22%20as%3D%22geometry%22%2F%3E%3C%2FmxCell%3E%3C%2Froot%3E%3C%2FmxGraphModel%3E&lt;/span&gt;&lt;/div&gt;" style="ellipse;whiteSpace=wrap;html=1;strokeColor=default;align=center;verticalAlign=middle;fontFamily=Helvetica;fontSize=12;fontColor=default;fillColor=default;" vertex="1" parent="1">
          <mxGeometry x="444.38" y="20" width="47" height="40" as="geometry" />
        </mxCell>
        <mxCell id="7FEDEtRAqXnlfVxVKvqJ-125" value="GPS&lt;div&gt;Tracking&lt;span style=&quot;color: rgba(0, 0, 0, 0); font-family: monospace; font-size: 0px; text-align: start; text-wrap: nowrap; background-color: initial;&quot;&gt;%3CmxGraphModel%3E%3Croot%3E%3CmxCell%20id%3D%220%22%2F%3E%3CmxCell%20id%3D%221%22%20parent%3D%220%22%2F%3E%3CmxCell%20id%3D%222%22%20value%3D%22Enter%20Location%22%20style%3D%22ellipse%3BwhiteSpace%3Dwrap%3Bhtml%3D1%3BstrokeColor%3Ddefault%3Balign%3Dcenter%3BverticalAlign%3Dmiddle%3BfontFamily%3DHelvetica%3BfontSize%3D12%3BfontColor%3Ddefault%3BfillColor%3Ddefault%3B%22%20vertex%3D%221%22%20parent%3D%221%22%3E%3CmxGeometry%20x%3D%22329%22%20y%3D%2260%22%20width%3D%2286%22%20height%3D%2250%22%20as%3D%22geometry%22%2F%3E%3C%2FmxCell%3E%3C%2Froot%3E%3C%2FmxGraphModel%3E&lt;/span&gt;&lt;/div&gt;" style="ellipse;whiteSpace=wrap;html=1;strokeColor=default;align=center;verticalAlign=middle;fontFamily=Helvetica;fontSize=12;fontColor=default;fillColor=default;" vertex="1" parent="1">
          <mxGeometry x="788.63" y="20" width="47" height="40" as="geometry" />
        </mxCell>
        <mxCell id="7FEDEtRAqXnlfVxVKvqJ-138" style="edgeStyle=orthogonalEdgeStyle;rounded=0;orthogonalLoop=1;jettySize=auto;html=1;exitX=0;exitY=0.5;exitDx=0;exitDy=0;entryX=1;entryY=0.5;entryDx=0;entryDy=0;fontFamily=Helvetica;fontSize=12;fontColor=default;" edge="1" parent="1" source="7FEDEtRAqXnlfVxVKvqJ-131" target="7FEDEtRAqXnlfVxVKvqJ-137">
          <mxGeometry relative="1" as="geometry" />
        </mxCell>
        <mxCell id="7FEDEtRAqXnlfVxVKvqJ-131" value="Customer Found" style="ellipse;whiteSpace=wrap;html=1;strokeColor=default;align=center;verticalAlign=middle;fontFamily=Helvetica;fontSize=12;fontColor=default;fillColor=default;" vertex="1" parent="1">
          <mxGeometry x="858.51" y="120" width="74" height="30" as="geometry" />
        </mxCell>
        <mxCell id="7FEDEtRAqXnlfVxVKvqJ-132" value="Cancel&lt;div&gt;Trip&lt;/div&gt;" style="ellipse;whiteSpace=wrap;html=1;strokeColor=default;align=center;verticalAlign=middle;fontFamily=Helvetica;fontSize=12;fontColor=default;fillColor=default;" vertex="1" parent="1">
          <mxGeometry x="491.38" y="100" width="40" height="35" as="geometry" />
        </mxCell>
        <mxCell id="7FEDEtRAqXnlfVxVKvqJ-137" value="Cancel&lt;div&gt;Trip&lt;/div&gt;" style="ellipse;whiteSpace=wrap;html=1;strokeColor=default;align=center;verticalAlign=middle;fontFamily=Helvetica;fontSize=12;fontColor=default;fillColor=default;" vertex="1" parent="1">
          <mxGeometry x="748.63" y="90" width="40" height="35" as="geometry" />
        </mxCell>
        <mxCell id="7FEDEtRAqXnlfVxVKvqJ-139" value="&lt;font style=&quot;font-size: 9px;&quot;&gt;Optional&lt;/font&gt;" style="edgeLabel;html=1;align=center;verticalAlign=middle;resizable=0;points=[];strokeColor=default;fontFamily=Helvetica;fontSize=12;fontColor=default;fillColor=default;" vertex="1" connectable="0" parent="1">
          <mxGeometry x="841" y="126" as="geometry" />
        </mxCell>
      </root>
    </mxGraphModel>
  </diagram>
</mxfile>
